<?xml version="1.0" encoding="UTF-8"?>
<svg id="Layer_1" data-name="Layer 1" xmlns="http://www.w3.org/2000/svg" viewBox="0 0 792 612">
  <defs>
    <style>
      .cls-1 {
        fill: #8dd1c6;
      }
    </style>
  </defs>
  <path class="cls-1" d="M377.1,297.08c5.66-7.5,10.29-18.87,15.37-28.37,4.52-9.74,12.52-23.51,18.14-6.7,2.31,7.53,4.35,17.12,6.38,24.95,1.84,7.38,3.48,14.75,7.87,20.16,7.09,8.49,22.22,13.65,32.39,19.36,7.97,3.8,23.11,11.57,8.53,17.46-9.39,3.28-21.5,5.51-31.36,8.21-8.98,2.12-16.64,5.51-21.55,13.48-5.03,8.16-9.09,17.42-13.59,26.01-21.63,45.55-19.73-31.62-34.28-41.06-7.53-6.74-16.65-9.85-26.75-15.31-6.51-3.66-22.58-9.4-16.95-16.27,3.29-3.12,8.2-4.18,13.26-5.51,8.23-2.11,19.73-4.7,27.38-6.92,6.23-1.83,11.41-4.75,14.98-9.29l.17-.21Z"/>
  <path class="cls-1" d="M205.15,396.02c5.07-6.84,8.92-14.57,12.26-22.42,3.46-7.27,7.91-21.66,14.64-29.9,5.28-6.46,14.71-6.82,20.46-.77,8.76,9.2,14.53,26.61,20.75,36.08,4.49,7.62,9.78,14.53,16.37,20.34,14.8,14.09,39.1,19,55.38,28.78,29.44,19.59-19.68,34.4-33.4,43.66-16.53,9.45-28.77,24.03-36.31,41.73-5.01,10.96-8.78,23.25-15.07,33.3-13.76,22.16-26.08-4.98-33.29-18.83-3.14-6.12-6.36-12.41-9.86-18.19-5.49-9.07-11.64-16.92-19.78-23.18-7.67-5.98-16.6-9.97-25.65-13.5-12.39-5.16-23.91-8.38-31.31-16.88-.6-.69-1.47-1.89-1.87-2.7-7.93-16.24,32.68-28.7,43.45-36.57.22-.16.59-.42.83-.57,8.78-5.5,16.3-12.1,22.22-20.13l.18-.24Z"/>
  <path class="cls-1" d="M421.28,493.72c1.52-5.05,1.74-11.93,2.56-17.92.48-6,2.01-14.81,8.25-7.06,2.68,3.51,5.62,8.16,8.22,11.89,2.41,3.53,4.7,7.08,8.07,9.08,5.38,3.09,14.35,2.86,20.81,3.88,4.93.45,14.41,1.59,7.89,7.53-4.31,3.55-10.24,7.09-14.91,10.43-4.32,2.86-7.68,6.14-8.72,11.29-1.06,5.27-1.39,10.94-2.09,16.33-2.52,28.18-16.54-12.8-26.04-14.94-5.28-2.08-10.68-1.94-17.06-2.85-4.14-.66-13.71-.55-12.09-5.26,1.13-2.28,3.5-3.79,5.91-5.48,3.92-2.71,9.47-6.32,13.06-8.97,2.92-2.18,5.08-4.72,6.08-7.8l.05-.15Z"/>
</svg>